<svg width="27" height="19" viewBox="0 0 27 19" fill="none" xmlns="http://www.w3.org/2000/svg">
<path id="Arrow 3" d="M1.76004 8.38535C1.06126 8.38535 0.494787 8.95182 0.494787 9.6506C0.494787 10.3494 1.06126 10.9159 1.76004 10.9159L1.76004 8.38535ZM26.3947 10.5453C26.8888 10.0512 26.8888 9.25005 26.3947 8.75594L18.3427 0.703915C17.8485 0.209803 17.0474 0.209803 16.5533 0.703915C16.0592 1.19803 16.0592 1.99914 16.5533 2.49325L23.7107 9.65061L16.5533 16.808C16.0592 17.3021 16.0592 18.1032 16.5533 18.5973C17.0474 19.0914 17.8485 19.0914 18.3427 18.5973L26.3947 10.5453ZM1.76004 10.9159L25.5 10.9159L25.5 8.38535L1.76004 8.38535L1.76004 10.9159Z" fill="#1C1C1C"/>
</svg>
