<svg width="41" height="42" viewBox="0 0 41 42" fill="none" xmlns="http://www.w3.org/2000/svg">
<g id="Component 3">
<path id="Vector" d="M1.81116 35.7685V6.66557C1.81116 4.36941 3.67256 2.50801 5.96872 2.50801H35.0716C37.3679 2.50801 39.2292 4.36941 39.2292 6.66557V35.7685C39.2292 38.0647 37.3679 39.9261 35.0716 39.9261H5.96872C3.67256 39.9261 1.81116 38.0647 1.81116 35.7685Z" stroke="#FCFCFC" stroke-width="3.33964"/>
<path id="Vector_2" d="M24.3775 25.0621C25.6632 23.7729 26.4581 21.9938 26.4581 20.0292C26.4581 16.0928 23.2672 12.9019 19.331 12.9019C15.3947 12.9019 12.2037 16.0928 12.2037 20.0292C12.2037 23.9653 15.3947 27.1563 19.331 27.1563C21.3026 27.1563 23.0872 26.3559 24.3775 25.0621ZM24.3775 25.0621L28.834 29.5321" stroke="#FCFCFC" stroke-width="3.33964" stroke-linecap="round" stroke-linejoin="round"/>
</g>
</svg>
