<svg width="41" height="42" viewBox="0 0 41 42" fill="none" xmlns="http://www.w3.org/2000/svg">
<g id="Component 3">
<path id="Vector" d="M1.81123 35.7685V6.66557C1.81123 4.36941 3.67264 2.50801 5.96879 2.50801H35.0717C37.3679 2.50801 39.2293 4.36941 39.2293 6.66557V35.7685C39.2293 38.0647 37.3679 39.9261 35.0717 39.9261H5.96879C3.67264 39.9261 1.81123 38.0647 1.81123 35.7685Z" stroke="#FCFCFC" stroke-width="3.33964"/>
<path id="Vector_2" d="M24.3776 25.0621C25.6633 23.7729 26.4582 21.9938 26.4582 20.0292C26.4582 16.0928 23.2673 12.9019 19.3311 12.9019C15.3948 12.9019 12.2038 16.0928 12.2038 20.0292C12.2038 23.9653 15.3948 27.1563 19.3311 27.1563C21.3027 27.1563 23.0873 26.3559 24.3776 25.0621ZM24.3776 25.0621L28.8341 29.5321" stroke="#FCFCFC" stroke-width="3.33964" stroke-linecap="round" stroke-linejoin="round"/>
</g>
</svg>
