<svg width="41" height="42" viewBox="0 0 41 42" fill="none" xmlns="http://www.w3.org/2000/svg">
<g id="Component 3">
<path id="Vector" d="M1.81122 35.6357V6.53274C1.81122 4.23659 3.67262 2.37518 5.96878 2.37518H35.0717C37.3679 2.37518 39.2293 4.23659 39.2293 6.53274V35.6357C39.2293 37.9319 37.3679 39.7932 35.0717 39.7932H5.96878C3.67262 39.7932 1.81122 37.9319 1.81122 35.6357Z" stroke="#FCFCFC" stroke-width="3.33964"/>
<path id="Vector_2" d="M24.3776 24.9293C25.6633 23.64 26.4583 21.861 26.4583 19.8963C26.4583 15.96 23.2673 12.769 19.3312 12.769C15.3948 12.769 12.2039 15.96 12.2039 19.8963C12.2039 23.8325 15.3948 27.0234 19.3312 27.0234C21.3027 27.0234 23.0873 26.2231 24.3776 24.9293ZM24.3776 24.9293L28.8341 29.3993" stroke="#FCFCFC" stroke-width="3.33964" stroke-linecap="round" stroke-linejoin="round"/>
</g>
</svg>
