<svg width="41" height="42" viewBox="0 0 41 42" fill="none" xmlns="http://www.w3.org/2000/svg">
<g id="Component 3">
<path id="Vector" d="M17.7619 3.72674C19.2419 2.10177 21.7985 2.10177 23.2785 3.72674L25.1816 5.81638C25.9294 6.63764 27.0044 7.08291 28.1141 7.03105L30.9373 6.89911C33.1327 6.7965 34.9408 8.60447 34.8382 10.7999L34.7061 13.6232C34.6543 14.7328 35.0995 15.8077 35.9208 16.5557L38.0104 18.4587C39.6355 19.9387 39.6355 22.4953 38.0104 23.9753L35.9208 25.8784C35.0995 26.6262 34.6543 27.7012 34.7061 28.8109L34.8382 31.6341C34.9408 33.8295 33.1327 35.6376 30.9373 35.535L28.1141 35.4029C27.0044 35.3511 25.9294 35.7963 25.1816 36.6176L23.2785 38.7072C21.7985 40.3323 19.2419 40.3323 17.7619 38.7072L15.8589 36.6176C15.1109 35.7963 14.036 35.3511 12.9264 35.4029L10.1031 35.535C7.90767 35.6376 6.09971 33.8295 6.20232 31.6341L6.33426 28.8109C6.38611 27.7012 5.94085 26.6262 5.11959 25.8784L3.02995 23.9753C1.40497 22.4953 1.40497 19.9387 3.02995 18.4587L5.11959 16.5557C5.94085 15.8077 6.38611 14.7328 6.33426 13.6232L6.20232 10.7999C6.09971 8.60447 7.90767 6.7965 10.1032 6.89911L12.9264 7.03105C14.036 7.08291 15.1109 6.63764 15.8589 5.81638L17.7619 3.72674Z" stroke="#FCFCFC" stroke-width="3.34"/>
<path id="Vector_2" d="M14.9222 21.2172L18.653 24.9479L26.1144 17.4865" stroke="#FCFCFC" stroke-width="3.34" stroke-linecap="round" stroke-linejoin="round"/>
</g>
</svg>
